<svg xmlns="http://www.w3.org/2000/svg" viewBox="0 0 1440 900" preserveAspectRatio="xMidYMid slice">
  <defs>
    <linearGradient id="hBg" x1="0" y1="0" x2="1440" y2="900" gradientUnits="userSpaceOnUse">
      <stop offset="0%" stop-color="#030b1e"/>
      <stop offset="45%" stop-color="#0a1d48"/>
      <stop offset="100%" stop-color="#060f24"/>
    </linearGradient>
    <radialGradient id="hGreenGlow" cx="15%" cy="95%" r="55%">
      <stop offset="0%" stop-color="#4CAF50" stop-opacity="0.35"/>
      <stop offset="100%" stop-color="#4CAF50" stop-opacity="0"/>
    </radialGradient>
    <radialGradient id="hGoldGlow" cx="88%" cy="10%" r="45%">
      <stop offset="0%" stop-color="#FFD700" stop-opacity="0.22"/>
      <stop offset="100%" stop-color="#FFD700" stop-opacity="0"/>
    </radialGradient>
    <radialGradient id="hBlueGlow" cx="50%" cy="55%" r="50%">
      <stop offset="0%" stop-color="#1a4d9e" stop-opacity="0.6"/>
      <stop offset="100%" stop-color="#1a4d9e" stop-opacity="0"/>
    </radialGradient>
    <filter id="hBlur30"><feGaussianBlur stdDeviation="30"/></filter>
    <filter id="hBlur15"><feGaussianBlur stdDeviation="15"/></filter>
    <filter id="hBlur5"><feGaussianBlur stdDeviation="5"/></filter>
    <filter id="hBlur2"><feGaussianBlur stdDeviation="2"/></filter>
    <filter id="hStarGlow">
      <feGaussianBlur stdDeviation="3" result="b"/>
      <feMerge><feMergeNode in="b"/><feMergeNode in="SourceGraphic"/></feMerge>
    </filter>
  </defs>

  <!-- ── Base background ── -->
  <rect width="1440" height="900" fill="url(#hBg)"/>

  <!-- ── Atmospheric color glows ── -->
  <rect width="1440" height="900" fill="url(#hGreenGlow)"/>
  <rect width="1440" height="900" fill="url(#hGoldGlow)"/>
  <ellipse cx="720" cy="520" rx="750" ry="520" fill="url(#hBlueGlow)" filter="url(#hBlur30)"/>

  <!-- ── Horizon glow (light from below) ── -->
  <ellipse cx="280" cy="900" rx="420" ry="220" fill="#4CAF50" opacity="0.18" filter="url(#hBlur30)"/>
  <ellipse cx="1160" cy="870" rx="350" ry="180" fill="#2196F3" opacity="0.12" filter="url(#hBlur30)"/>

  <!-- ── Light beams from bottom-left ── -->
  <g opacity="0.07">
    <line x1="0" y1="900" x2="500" y2="0" stroke="white" stroke-width="80"/>
    <line x1="0" y1="900" x2="700" y2="0" stroke="white" stroke-width="50"/>
    <line x1="0" y1="900" x2="900" y2="0" stroke="white" stroke-width="30"/>
    <line x1="0" y1="900" x2="1100" y2="0" stroke="white" stroke-width="20"/>
    <line x1="0" y1="900" x2="300" y2="0" stroke="white" stroke-width="60"/>
  </g>

  <!-- ── Stars (small) ── -->
  <g fill="white">
    <circle cx="42" cy="24" r="1.2" opacity="0.85"/>
    <circle cx="118" cy="11" r="0.9" opacity="0.65"/>
    <circle cx="192" cy="44" r="1.8" opacity="0.9"/>
    <circle cx="267" cy="17" r="0.9" opacity="0.7"/>
    <circle cx="368" cy="32" r="1.4" opacity="0.8"/>
    <circle cx="448" cy="7" r="0.9" opacity="0.55"/>
    <circle cx="518" cy="50" r="1.8" opacity="0.9"/>
    <circle cx="608" cy="21" r="0.9" opacity="0.72"/>
    <circle cx="682" cy="39" r="1.4" opacity="0.78"/>
    <circle cx="758" cy="13" r="0.9" opacity="0.62"/>
    <circle cx="838" cy="44" r="1.8" opacity="0.88"/>
    <circle cx="902" cy="27" r="0.9" opacity="0.68"/>
    <circle cx="978" cy="15" r="1.4" opacity="0.82"/>
    <circle cx="1048" cy="47" r="0.9" opacity="0.58"/>
    <circle cx="1128" cy="11" r="1.8" opacity="0.92"/>
    <circle cx="1208" cy="40" r="0.9" opacity="0.68"/>
    <circle cx="1285" cy="23" r="1.4" opacity="0.78"/>
    <circle cx="1392" cy="44" r="0.9" opacity="0.58"/>
    <circle cx="28" cy="88" r="1.4" opacity="0.68"/>
    <circle cx="94" cy="76" r="0.9" opacity="0.52"/>
    <circle cx="168" cy="102" r="1.8" opacity="0.82"/>
    <circle cx="254" cy="70" r="0.9" opacity="0.6"/>
    <circle cx="342" cy="94" r="1.4" opacity="0.72"/>
    <circle cx="422" cy="60" r="0.9" opacity="0.5"/>
    <circle cx="492" cy="110" r="2.2" opacity="0.88"/>
    <circle cx="572" cy="84" r="0.9" opacity="0.68"/>
    <circle cx="652" cy="67" r="1.4" opacity="0.78"/>
    <circle cx="728" cy="98" r="0.9" opacity="0.58"/>
    <circle cx="808" cy="76" r="1.8" opacity="0.88"/>
    <circle cx="872" cy="60" r="0.9" opacity="0.5"/>
    <circle cx="944" cy="92" r="1.4" opacity="0.68"/>
    <circle cx="1014" cy="76" r="0.9" opacity="0.62"/>
    <circle cx="1094" cy="66" r="1.8" opacity="0.82"/>
    <circle cx="1174" cy="98" r="0.9" opacity="0.68"/>
    <circle cx="1252" cy="80" r="1.4" opacity="0.78"/>
    <circle cx="1362" cy="60" r="0.9" opacity="0.5"/>
    <circle cx="58" cy="152" r="1.4" opacity="0.72"/>
    <circle cx="132" cy="138" r="0.9" opacity="0.52"/>
    <circle cx="212" cy="166" r="1.8" opacity="0.88"/>
    <circle cx="292" cy="132" r="0.9" opacity="0.62"/>
    <circle cx="388" cy="158" r="1.4" opacity="0.78"/>
    <circle cx="468" cy="126" r="0.9" opacity="0.5"/>
    <circle cx="542" cy="174" r="1.8" opacity="0.82"/>
    <circle cx="622" cy="148" r="0.9" opacity="0.68"/>
    <circle cx="698" cy="130" r="1.4" opacity="0.72"/>
    <circle cx="772" cy="162" r="0.9" opacity="0.58"/>
    <circle cx="1308" cy="142" r="1.4" opacity="0.78"/>
    <circle cx="1412" cy="168" r="0.9" opacity="0.58"/>
    <circle cx="152" cy="218" r="0.9" opacity="0.48"/>
    <circle cx="332" cy="194" r="1.4" opacity="0.58"/>
    <circle cx="488" cy="234" r="0.9" opacity="0.48"/>
    <circle cx="648" cy="208" r="1.8" opacity="0.68"/>
    <circle cx="1322" cy="202" r="0.9" opacity="0.48"/>
    <circle cx="1398" cy="224" r="1.4" opacity="0.62"/>
    <circle cx="82" cy="278" r="0.9" opacity="0.44"/>
    <circle cx="238" cy="264" r="1.4" opacity="0.52"/>
    <circle cx="408" cy="292" r="0.9" opacity="0.48"/>
    <circle cx="558" cy="272" r="1.8" opacity="0.62"/>
    <circle cx="62" cy="340" r="0.9" opacity="0.38"/>
    <circle cx="218" cy="318" r="1.2" opacity="0.45"/>
    <circle cx="1360" cy="252" r="0.9" opacity="0.42"/>
    <circle cx="1420" cy="298" r="1.2" opacity="0.5"/>
  </g>

  <!-- ── Bright accent stars (with glow) ── -->
  <g filter="url(#hStarGlow)" fill="white">
    <circle cx="178" cy="54" r="2.8" opacity="0.75"/>
    <circle cx="618" cy="34" r="3.2" opacity="0.78"/>
    <circle cx="1078" cy="28" r="2.8" opacity="0.72"/>
    <circle cx="1348" cy="78" r="2.8" opacity="0.68"/>
    <circle cx="72" cy="114" r="2.4" opacity="0.68"/>
    <circle cx="438" cy="68" r="2.4" opacity="0.62"/>
    <circle cx="862" cy="18" r="2.8" opacity="0.7"/>
    <circle cx="1200" cy="58" r="2.2" opacity="0.65"/>
  </g>

  <!-- ── Golden star (north star accent) ── -->
  <circle cx="620" cy="34" r="4" fill="#FFD700" opacity="0.9" filter="url(#hBlur2)"/>
  <circle cx="620" cy="34" r="1.5" fill="white" opacity="1"/>

  <!-- ── Africa continent outline ── -->
  <path d="M 920 118
    L 980 108 L 1028 115 L 1062 128 L 1075 152 L 1078 185 L 1072 218
    L 1068 252 L 1058 278 L 1042 298 L 1028 318 L 1018 342 L 1015 368
    L 1022 395 L 1028 422 L 1022 452 L 1008 482 L 998 512 L 992 542
    L 985 572 L 980 608 L 975 638 L 965 668 L 948 698 L 928 722 L 905 738
    L 878 728 L 858 705 L 848 672 L 848 638 L 852 605 L 848 572
    L 838 538 L 828 504 L 822 470 L 825 436 L 828 402 L 818 368
    L 808 334 L 805 300 L 812 268 L 818 238 L 815 208 L 808 178
    L 808 152 L 818 132 L 838 120 L 862 114 L 890 112 Z"
    fill="none" stroke="rgba(255,255,255,0.10)" stroke-width="1.8"/>

  <!-- Nigeria highlight (approximate location on Africa outline) -->
  <circle cx="848" cy="435" r="8" fill="none" stroke="#4CAF50" stroke-width="1.2" opacity="0.5"/>
  <circle cx="848" cy="435" r="3" fill="#4CAF50" opacity="0.4"/>

  <!-- ── Constellation: The Scholar (top-left) ── -->
  <!-- Stars -->
  <g fill="white" filter="url(#hStarGlow)">
    <circle cx="168" cy="188" r="2.8" opacity="0.9"/>
    <circle cx="248" cy="158" r="2.4" opacity="0.85"/>
    <circle cx="318" cy="182" r="2.8" opacity="0.9"/>
    <circle cx="298" cy="248" r="2.4" opacity="0.82"/>
    <circle cx="215" cy="268" r="2.8" opacity="0.88"/>
    <circle cx="142" cy="238" r="2.4" opacity="0.8"/>
    <circle cx="248" cy="215" r="3.2" opacity="0.95"/>
  </g>
  <!-- Constellation lines -->
  <g stroke="rgba(255,255,255,0.22)" stroke-width="0.8" fill="none">
    <line x1="168" y1="188" x2="248" y2="158"/>
    <line x1="248" y1="158" x2="318" y2="182"/>
    <line x1="318" y1="182" x2="298" y2="248"/>
    <line x1="298" y1="248" x2="215" y2="268"/>
    <line x1="215" y1="268" x2="142" y2="238"/>
    <line x1="142" y1="238" x2="168" y2="188"/>
    <line x1="168" y1="188" x2="248" y2="215"/>
    <line x1="318" y1="182" x2="248" y2="215"/>
    <line x1="298" y1="248" x2="248" y2="215"/>
    <line x1="142" y1="238" x2="248" y2="215"/>
  </g>

  <!-- ── Open book silhouette (bottom center) ── -->
  <g opacity="0.12" transform="translate(580, 730)">
    <!-- Left page -->
    <path d="M 140 0 Q 70 -20 0 10 L 0 110 Q 70 80 140 100 Z" fill="white"/>
    <!-- Right page -->
    <path d="M 140 0 Q 210 -20 280 10 L 280 110 Q 210 80 140 100 Z" fill="white"/>
    <!-- Spine -->
    <rect x="136" y="-5" width="8" height="110" fill="rgba(255,255,255,0.5)" rx="2"/>
    <!-- Page lines left -->
    <line x1="30" y1="35" x2="125" y2="25" stroke="rgba(100,140,200,0.4)" stroke-width="1.5"/>
    <line x1="30" y1="52" x2="125" y2="42" stroke="rgba(100,140,200,0.4)" stroke-width="1.5"/>
    <line x1="30" y1="69" x2="125" y2="59" stroke="rgba(100,140,200,0.4)" stroke-width="1.5"/>
    <!-- Page lines right -->
    <line x1="155" y1="25" x2="248" y2="35" stroke="rgba(100,140,200,0.4)" stroke-width="1.5"/>
    <line x1="155" y1="42" x2="248" y2="52" stroke="rgba(100,140,200,0.4)" stroke-width="1.5"/>
    <line x1="155" y1="59" x2="248" y2="69" stroke="rgba(100,140,200,0.4)" stroke-width="1.5"/>
  </g>

  <!-- ── Birds ascending from book (abstract) ── -->
  <g opacity="0.15" fill="white">
    <!-- Bird 1 (small, far right) -->
    <path d="M 880 580 Q 895 568 905 578 Q 918 568 930 580"/>
    <!-- Bird 2 (medium) -->
    <path d="M 820 540 Q 840 524 854 536 Q 872 522 888 536"/>
    <!-- Bird 3 (larger, lower) -->
    <path d="M 760 615 Q 786 597 804 612 Q 826 596 848 612"/>
  </g>
  <g opacity="0.12" stroke="white" stroke-width="2" fill="none">
    <path d="M 880 580 Q 895 568 905 578 Q 918 568 930 580"/>
    <path d="M 820 540 Q 840 524 854 536 Q 872 522 888 536"/>
    <path d="M 760 615 Q 786 597 804 612 Q 826 596 848 612"/>
  </g>

  <!-- ── Geometric accent diamonds ── -->
  <g opacity="0.12" stroke="white" stroke-width="1" fill="none">
    <rect x="1280" y="380" width="60" height="60" transform="rotate(45 1310 410)"/>
    <rect x="1310" y="395" width="30" height="30" transform="rotate(45 1325 410)"/>
    <rect x="120" y="440" width="50" height="50" transform="rotate(45 145 465)"/>
    <rect x="145" y="453" width="25" height="25" transform="rotate(45 157 465)"/>
  </g>

  <!-- ── Floating geometric shapes (top right decorative) ── -->
  <g opacity="0.08" stroke="white" stroke-width="1.2" fill="none">
    <polygon points="1340,155 1365,115 1390,155" />
    <polygon points="1380,130 1400,100 1420,130" />
    <circle cx="1320" cy="175" r="18"/>
    <circle cx="1345" cy="135" r="10"/>
  </g>

  <!-- ── Dot texture overlay ── -->
  <pattern id="hDots" x="0" y="0" width="32" height="32" patternUnits="userSpaceOnUse">
    <circle cx="16" cy="16" r="0.8" fill="white" opacity="0.04"/>
  </pattern>
  <rect width="1440" height="900" fill="url(#hDots)"/>

  <!-- ── Subtle grid lines (very faint) ── -->
  <pattern id="hGrid" x="0" y="0" width="80" height="80" patternUnits="userSpaceOnUse">
    <path d="M 80 0 L 0 0 0 80" fill="none" stroke="white" stroke-width="0.3" opacity="0.04"/>
  </pattern>
  <rect width="1440" height="900" fill="url(#hGrid)"/>

  <!-- ── Bottom gradient fade ── -->
  <linearGradient id="hFade" x1="0" y1="0" x2="0" y2="1">
    <stop offset="50%" stop-color="#030b1e" stop-opacity="0"/>
    <stop offset="100%" stop-color="#030b1e" stop-opacity="0.7"/>
  </linearGradient>
  <rect width="1440" height="900" fill="url(#hFade)"/>
</svg>
